<?xml version="1.0" encoding="UTF-8"?>
<svg version="1.1" xmlns="http://www.w3.org/2000/svg" width="500" height="500">
<path d="M0 0 C1.36605377 0.00081573 1.36605377 0.00081573 2.75970459 0.00164795 C50.99896546 0.13316461 99.84465555 13.50463591 139.6875 41.375 C140.44998047 41.90738281 141.21246094 42.43976562 141.99804688 42.98828125 C152.20648751 50.18372946 161.65856245 57.75454793 170.6875 66.375 C172.09640602 67.6130545 173.51229216 68.84324705 174.9375 70.0625 C182.70678695 76.83859975 189.29931524 84.29394627 195.6875 92.375 C196.87859375 93.85806641 196.87859375 93.85806641 198.09375 95.37109375 C222.62328736 126.45995359 238.96439378 162.90118446 246.9375 201.625 C247.08872314 202.35549561 247.23994629 203.08599121 247.39575195 203.83862305 C250.36495657 219.21779522 251.06091417 234.43726547 251 250.0625 C250.99726578 251.51974991 250.99726578 251.51974991 250.99447632 253.00643921 C250.95020367 267.01750637 250.49302857 280.60968511 247.6875 294.375 C247.3436632 296.23045267 246.9999171 298.08592214 246.65625 299.94140625 C240.36086093 332.39909542 227.25255613 365.53986837 207.6875 392.375 C207.25356934 392.97586426 206.81963867 393.57672852 206.37255859 394.19580078 C192.57961181 413.23148686 177.33073462 430.92185225 158.6875 445.375 C157.25083984 446.53708984 157.25083984 446.53708984 155.78515625 447.72265625 C111.77026238 482.7458568 57.04399676 500.92510006 1.0625 500.6875 C0.14340851 500.68534485 -0.77568298 500.6831897 -1.72262573 500.68096924 C-39.89882518 500.53773139 -75.94468959 492.06711598 -110.3125 475.375 C-111.03356934 475.02743652 -111.75463867 474.67987305 -112.49755859 474.32177734 C-136.26483618 462.72167221 -157.24619473 446.57094612 -176.3125 428.375 C-177.18519531 427.54355469 -178.05789062 426.71210938 -178.95703125 425.85546875 C-184.89897529 420.05956327 -190.24332775 413.94133342 -195.3125 407.375 C-195.82828613 406.71387207 -196.34407227 406.05274414 -196.87548828 405.37158203 C-224.88900601 369.25250705 -242.49911776 326.70201227 -248.3125 281.375 C-248.39982895 280.70312653 -248.4871579 280.03125305 -248.57713318 279.33901978 C-249.2530594 273.76046806 -249.4864823 268.26098475 -249.515625 262.64453125 C-249.52259399 261.73965973 -249.52956299 260.83478821 -249.53674316 259.90249634 C-249.55405049 256.99744979 -249.56046308 254.09259596 -249.5625 251.1875 C-249.56350708 250.19734894 -249.56451416 249.20719788 -249.56555176 248.18704224 C-249.55578138 234.01985716 -249.11818782 220.3006445 -246.3125 206.375 C-246.02977367 204.80495263 -245.74853877 203.23463601 -245.46875 201.6640625 C-239.35974661 168.89451638 -226.11056449 135.33577888 -206.3125 108.375 C-205.59578125 107.38757813 -204.8790625 106.40015625 -204.140625 105.3828125 C-195.83395737 94.12584568 -186.89170937 83.55474085 -177.3125 73.375 C-176.69632812 72.71628906 -176.08015625 72.05757813 -175.4453125 71.37890625 C-171.31982377 67.10537366 -166.79492252 63.38920674 -162.1640625 59.67578125 C-160.38677864 58.24178099 -158.62776887 56.7844471 -156.8984375 55.29296875 C-113.63922662 18.28231055 -56.39954453 -0.12801914 0 0 Z " fill="#0096B1" transform="translate(249.3125,-0.375)"/>
<path d="M0 0 C7.19550463 7.03110822 10.68661262 15.32656676 12.22265625 25.171875 C12.22265625 26.491875 12.22265625 27.811875 12.22265625 29.171875 C-15.99234375 29.666875 -15.99234375 29.666875 -44.77734375 30.171875 C-42.35387525 37.7482484 -42.35387525 37.7482484 -38.77734375 44.171875 C-38.48859375 44.89375 -38.19984375 45.615625 -37.90234375 46.359375 C-36.28744221 48.96116082 -34.67354173 49.22746262 -31.77734375 50.171875 C-31.17535156 50.43097656 -30.57335937 50.69007813 -29.953125 50.95703125 C-22.30871596 54.1860056 -16.68193461 53.65421882 -9.09765625 50.83984375 C-5.27844222 49.74037305 -1.72725838 49.98378383 2.22265625 50.171875 C-2.92082108 55.958287 -8.27709314 59.07079675 -16.02734375 60.109375 C-25.67147892 60.63031859 -33.6394929 58.25893646 -40.9453125 51.9140625 C-47.84699731 45.35083984 -50.83053062 37.77824425 -51.3046875 28.24267578 C-51.46351815 18.88710947 -48.92093151 12.22406961 -44.02734375 4.359375 C-31.73741395 -7.58916787 -14.24405995 -11.20995937 0 0 Z " fill="#FFFFFF" transform="translate(236.77734375,242.828125)"/>
<path d="M0 0 C6.98180612 6.56704536 11.05022069 13.28092897 12.03820801 23.01937866 C12.14750868 26.89577801 12.1389366 30.76030226 12.078125 34.63671875 C12.0706452 36.05588475 12.06496051 37.47506122 12.06097412 38.89424133 C12.04585406 42.59172135 12.00669465 46.28855177 11.9621582 49.98577881 C11.92090708 53.773633 11.90290008 57.5615943 11.8828125 61.34960938 C11.84018315 68.75419928 11.77210292 76.1582579 11.6875 83.5625 C10.0375 83.5625 8.3875 83.5625 6.6875 83.5625 C6.3575 73.9925 6.0275 64.4225 5.6875 54.5625 C-12.4625 54.5625 -30.6125 54.5625 -49.3125 54.5625 C-49.6425 64.1325 -49.9725 73.7025 -50.3125 83.5625 C-52.2925 83.5625 -54.2725 83.5625 -56.3125 83.5625 C-56.3823388 75.5210607 -56.43548174 67.47975039 -56.46793652 59.43808174 C-56.48352157 55.7030775 -56.50462684 51.96828237 -56.53881836 48.23339844 C-56.57167009 44.62182465 -56.5894067 41.01045066 -56.59713173 37.39873886 C-56.60262936 36.0281752 -56.61336348 34.65762115 -56.62969017 33.28714371 C-56.78957386 19.29634643 -54.6161913 10.1965769 -44.83984375 0.03125 C-32.07045733 -11.63548745 -12.8106315 -10.84885583 0 0 Z M-44.3125 7.5625 C-48.9467817 13.38505906 -50.56971834 18.84752751 -50.54296875 26.23828125 C-50.54103516 27.47771484 -50.53910156 28.71714844 -50.53710938 29.99414062 C-50.52486328 31.27482422 -50.51261719 32.55550781 -50.5 33.875 C-50.49935547 35.17501953 -50.49871094 36.47503906 -50.49804688 37.81445312 C-51.03486594 43.56478811 -51.03486594 43.56478811 -49.3125 48.5625 C-47.59931054 48.66131593 -45.88205197 48.69048969 -44.16601562 48.69189453 C-43.06817749 48.69504669 -41.97033936 48.69819885 -40.8392334 48.70144653 C-39.64447388 48.6994223 -38.44971436 48.69739807 -37.21875 48.6953125 C-35.39325623 48.69674759 -35.39325623 48.69674759 -33.53088379 48.69821167 C-30.95174101 48.69889372 -28.37259653 48.69703772 -25.79345703 48.69287109 C-21.82971364 48.68752322 -17.86608358 48.69281529 -13.90234375 48.69921875 C-11.40364558 48.69855797 -8.90494748 48.69727682 -6.40625 48.6953125 C-4.61411072 48.69834885 -4.61411072 48.69834885 -2.7857666 48.70144653 C-1.68792847 48.69829437 -0.59009033 48.69514221 0.54101562 48.69189453 C1.5128479 48.69109894 2.48468018 48.69030334 3.48596191 48.68948364 C5.66292617 48.80881235 5.66292617 48.80881235 6.6875 47.5625 C7.88895982 33.86088645 8.40307492 18.41103944 -0.4375 7.0625 C-6.21028358 1.16503427 -13.83619676 -2.13402181 -22 -2.6875 C-31.05680213 -2.50300959 -37.81307768 1.45460914 -44.3125 7.5625 Z " fill="#FEFFFF" transform="translate(157.3125,218.4375)"/>
<path d="M0 0 C1.65764498 1.01488468 3.31915242 2.02402398 5 3 C5.061875 2.278125 5.12375 1.55625 5.1875 0.8125 C6.29252566 -3.01258882 7.87827082 -4.5569076 11 -7 C14.8125 -7.8125 14.8125 -7.8125 18 -8 C18.6875 -6.1875 18.6875 -6.1875 19 -4 C17.15840327 -1.51384442 15.99529289 -0.99843096 13 0 C11.78016252 2.43967497 11.87948473 3.99904524 11.88647461 6.72509766 C11.88655014 7.70596344 11.88662567 8.68682922 11.88670349 9.69741821 C11.89186478 10.75891083 11.89702606 11.82040344 11.90234375 12.9140625 C11.9037587 13.99883881 11.90517365 15.08361511 11.90663147 16.20126343 C11.91224198 19.67587 11.92479628 23.15041281 11.9375 26.625 C11.94251365 28.97656157 11.94707679 31.32812415 11.95117188 33.6796875 C11.96221482 39.45314686 11.97896321 45.22656888 12 51 C13.98 51.33 15.96 51.66 18 52 C18.495 54.475 18.495 54.475 19 57 C18.01 57.66 17.02 58.32 16 59 C12.07729963 57.6690838 8.49797623 56.41828327 6 53 C5.31490461 51.34082354 4.64639712 49.6746322 4 48 C3.40832031 48.39832031 2.81664062 48.79664063 2.20703125 49.20703125 C0.57528774 50.30107135 -1.06030227 51.38939108 -2.69921875 52.47265625 C-4.3135007 53.54427635 -5.91266002 54.63886201 -7.5 55.75 C-14.6783846 59.3391923 -22.22027954 59.67883954 -30 58 C-39.17177821 54.77314081 -45.43218082 49.41967106 -49.875 40.8125 C-54.0581094 32.01688918 -54.48953739 22.38708883 -51.3125 13.125 C-47.10550076 3.06033862 -40.92050957 -2.43861106 -31 -7 C-18.66701839 -9.80295037 -9.98379437 -7.11772412 0 0 Z M-42.45703125 7.0390625 C-48.44224185 14.64558331 -49.02286892 22.53577068 -48 32 C-46.28977329 40.23400542 -41.82124565 45.27498432 -35 50 C-28.37451078 53.88887411 -20.68328617 54.14692722 -13.3203125 52.34375 C-5.675024 49.64814676 -0.41903611 45.13526367 3.4375 38 C6.48226867 30.30240301 6.48340747 20.58650537 3.3125 12.9375 C-0.78450996 5.38142282 -5.70038229 0.52643803 -14 -2 C-25.89624629 -3.44311005 -34.29812565 -1.81064289 -42.45703125 7.0390625 Z " fill="#FFFFFF" transform="translate(381,244)"/>
<path d="M0 0 C7.1200408 4.92925902 11.14127355 10.98276691 13.69140625 19.23828125 C13.84416016 20.11033203 13.84416016 20.11033203 14 21 C13 22 13 22 10.98155212 22.12025452 C10.09552811 22.11803391 9.20950409 22.11581329 8.29663086 22.11352539 C7.29566879 22.11344986 6.29470673 22.11337433 5.26341248 22.11329651 C4.1748848 22.10813522 3.08635712 22.10297394 1.96484375 22.09765625 C0.85645645 22.0962413 -0.25193085 22.09482635 -1.39390564 22.09336853 C-4.95013069 22.08775033 -8.50629383 22.07519475 -12.0625 22.0625 C-14.46679597 22.05748734 -16.87109292 22.05292403 -19.27539062 22.04882812 C-25.18361504 22.03777499 -31.0918031 22.02101917 -37 22 C-38.40869153 17.7739254 -36.99401365 15.5574259 -35.296875 11.5703125 C-31.97846891 4.99347152 -27.57164417 1.16412497 -21 -2 C-13.82570304 -4.20070459 -6.51393047 -3.7394786 0 0 Z " fill="#0697B1" transform="translate(229,245)"/>
<path d="M0 0 C7.34693878 1.34693878 7.34693878 1.34693878 10.4375 4.4375 C12 7 12 7 13 10 C16.44968669 8.46680592 19.06948331 6.35870856 22 4 C27.22423634 -0.14865827 33.68995987 -0.29100636 40.140625 0.14453125 C48.1060277 1.61780695 54.97249346 7.02522226 59.5 13.5625 C61.53165147 16.91415101 63.02108808 20.18224353 64 24 C60.875 24.625 60.875 24.625 57 24 C55.515625 21.984375 55.515625 21.984375 54.125 19.375 C51.10644126 13.78272275 47.99230356 10.35477372 42 8 C34.81586604 6.6876982 28.97246871 7.62045343 22.8359375 11.5859375 C17.43126786 15.74868305 14.57951189 21.5738022 13.69937134 28.29614258 C13.56141363 30.78391928 13.50689011 33.25849543 13.48828125 35.75 C13.47033005 36.64871826 13.45237885 37.54743652 13.43388367 38.47338867 C13.38013695 41.31554614 13.34600026 44.15753917 13.3125 47 C13.2792954 48.93882479 13.24480287 50.87762798 13.20898438 52.81640625 C13.12443134 57.54415147 13.05745133 62.27185094 13 67 C11.02 67 9.04 67 7 67 C6.98786972 65.97975739 6.98786972 65.97975739 6.97549438 64.93890381 C6.88950402 57.86614128 6.79000253 50.79366079 6.68261719 43.72119141 C6.64431033 41.08094007 6.60946051 38.44063624 6.578125 35.80029297 C6.53251211 32.00729599 6.47451044 28.21466095 6.4140625 24.421875 C6.40251129 23.23946228 6.39096008 22.05704956 6.37905884 20.83880615 C6.35918915 19.73796692 6.33931946 18.63712769 6.31884766 17.50292969 C6.30552399 16.53474304 6.29220032 15.5665564 6.2784729 14.56903076 C5.98825369 11.89163527 5.4482564 10.25679706 4 8 C1.9664052 6.73195434 1.9664052 6.73195434 0 6 C0 4.02 0 2.04 0 0 Z " fill="#FFFFFF" transform="translate(257,236)"/>
<path d="M0 0 C3.63 0 7.26 0 11 0 C9.4462536 11.9638473 4.92219477 22.46023018 -4.75 30.0625 C-14.38343264 37.01501446 -23.13949246 39.29285204 -35 39 C-35 35.37 -35 31.74 -35 28 C-34.14277344 27.89042969 -33.28554687 27.78085938 -32.40234375 27.66796875 C-21.21589955 26.11674819 -13.77909302 23.41227502 -6 15 C-2.88454874 10.39683325 -1.33784324 5.35137298 0 0 Z " fill="#FFFFFF" transform="translate(229,160)"/>
<path d="M0 0 C2.69082872 0.17635452 5.32851446 0.61835921 8 1 C8 1.66 8 2.32 8 3 C8.8971875 3.37125 8.8971875 3.37125 9.8125 3.75 C12 5 12 5 13.5 7.0625 C15.24509481 9.3165808 16.23423473 9.61851514 19 10 C18.01 10.99 17.02 11.98 16 13 C13 12 13 12 11.5 9.0625 C10.7575 7.5465625 10.7575 7.5465625 10 6 C7.08235 4.0549 5.37462715 3.54723683 2 3 C1.58219121 5.37305578 1.58219121 5.37305578 2 8 C4.41055254 9.66299965 4.41055254 9.66299965 7 11 C8.02612598 14.07837794 8.12090219 16.16574296 8.11352539 19.3894043 C8.11344986 20.49031906 8.11337433 21.59123383 8.11329651 22.72550964 C8.10813522 23.91308365 8.10297394 25.10065765 8.09765625 26.32421875 C8.0962413 27.54075638 8.09482635 28.75729401 8.09336853 30.01069641 C8.08776312 33.9029891 8.07520967 37.79522464 8.0625 41.6875 C8.0574857 44.32356688 8.05292267 46.95963466 8.04882812 49.59570312 C8.03779193 56.06382164 8.0210485 62.53190674 8 69 C9.98 69 11.96 69 14 69 C13.97905273 67.80511963 13.95810547 66.61023926 13.93652344 65.37915039 C13.86368388 60.91198893 13.8180415 56.44487912 13.78027344 51.97729492 C13.76025757 50.05012155 13.73303617 48.12300814 13.69824219 46.19604492 C13.64927959 43.41309748 13.62693083 40.63095844 13.609375 37.84765625 C13.58872986 36.99728287 13.56808472 36.14690948 13.54681396 35.27076721 C13.54372572 26.88715013 16.36510867 20.23862969 22 14 C22.66 14.33 23.32 14.66 24 15 C22.96868313 18.0939506 22.23477351 18.81599115 20 21 C16.13674604 26.72876244 15.40036774 31.96586011 15.390625 38.75 C15.37408875 39.64871826 15.35755249 40.54743652 15.34051514 41.47338867 C15.29231896 44.31566392 15.27072776 47.1574053 15.25 50 C15.22181653 51.93882853 15.1918858 53.87763251 15.16015625 55.81640625 C15.08656788 60.54422682 15.03682038 65.27175594 15 70 C12.03 70 9.06 70 6 70 C4.98876957 66.96630872 4.8955211 65.00978894 4.93408203 61.84179688 C4.94384064 60.79060669 4.95359924 59.7394165 4.96365356 58.65637207 C4.98551224 56.95474915 4.98551224 56.95474915 5.0078125 55.21875 C5.02532537 52.82682713 5.04223398 50.43489978 5.05859375 48.04296875 C5.0896076 44.26370958 5.12518738 40.48467222 5.17138672 36.70556641 C5.21360251 33.06409886 5.23713064 29.42289477 5.2578125 25.78125 C5.27643341 24.64683472 5.29505432 23.51241943 5.3142395 22.34362793 C5.31769379 21.29243774 5.32114807 20.24124756 5.32470703 19.15820312 C5.33438507 18.23237427 5.34406311 17.30654541 5.35403442 16.35266113 C4.93701038 13.58141579 4.15711988 12.716727 2 11 C1.67 11.66 1.34 12.32 1 13 C-1.11295256 9.83057116 -1.25250929 9.00370047 -1.1875 5.375 C-1.17783203 4.18003906 -1.17783203 4.18003906 -1.16796875 2.9609375 C-1 1 -1 1 0 0 Z " fill="#1D9EAC" transform="translate(256,234)"/>
<path d="M0 0 C2.25 0 2.25 0 5 1 C6.80421341 3.47290789 7.91003972 6.15065501 9 9 C9.2451384 9.55811874 9.49027679 10.11623749 9.74284363 10.69126892 C12.64354525 18.03390996 12.38240729 25.3124888 12.29296875 33.09765625 C12.2873626 34.54210466 12.28309733 35.98655883 12.28010559 37.43101501 C12.26873682 41.20401188 12.23934013 44.97665364 12.20599365 48.74951172 C12.17511923 52.61095376 12.16156341 56.47245406 12.14648438 60.33398438 C12.11446122 67.88948353 12.06336361 75.44469171 12 83 C11.01 83.495 11.01 83.495 10 84 C9.99857498 83.19979431 9.99714996 82.39958862 9.99568176 81.57513428 C9.97775421 73.98501814 9.93585525 66.39557178 9.86790943 58.8057518 C9.83381019 54.90493024 9.80855636 51.0044932 9.80444336 47.10351562 C9.80012327 43.32947819 9.77135936 39.55630563 9.72656822 35.78253937 C9.7137103 34.35230828 9.70924339 32.92197306 9.71384621 31.49169159 C9.74330647 19.54287318 7.24940483 9.66587311 0 0 Z " fill="#2C99AA" transform="translate(159,220)"/>
<path d="M0 0 C0.66 0 1.32 0 2 0 C2.33820166 1.5823006 2.67035939 3.16589375 3 4.75 C3.185625 5.63171875 3.37125 6.5134375 3.5625 7.421875 C4 10 4 10 4 14 C-14.81 14 -33.62 14 -53 14 C-53 14.66 -53 15.32 -53 16 C-51.35 16.33 -49.7 16.66 -48 17 C-48 17.99 -48 18.98 -48 20 C-48.66 20 -49.32 20 -50 20 C-49.49303621 24.43593314 -47.82825762 26.62433768 -45 30 C-45 30.66 -45 31.32 -45 32 C-45.66 32 -46.32 32 -47 32 C-51.55620869 27.44379131 -54.34373267 22.24864493 -56 16 C-55.67 15.01 -55.34 14.02 -55 13 C-36.19 13 -17.38 13 2 13 C1.34 10.03 0.68 7.06 0 4 C0 2.68 0 1.36 0 0 Z " fill="#2796AA" transform="translate(247,259)"/>
<path d="M0 0 C2.64 0 5.28 0 8 0 C8 0.99 8 1.98 8 3 C10.20770805 3.08165496 12.41630425 3.13948488 14.625 3.1875 C16.46964844 3.23970703 16.46964844 3.23970703 18.3515625 3.29296875 C22.31025115 2.9750869 24.51176153 1.80038114 28 0 C30.9921875 -0.29296875 30.9921875 -0.29296875 33.875 -0.1875 C35.32519531 -0.14689453 35.32519531 -0.14689453 36.8046875 -0.10546875 C37.52914062 -0.07066406 38.25359375 -0.03585937 39 0 C38.67 1.65 38.34 3.3 38 5 C37.34 5 36.68 5 36 5 C35.67 6.98 35.34 8.96 35 11 C32.6875 11.6875 32.6875 11.6875 30 12 C29.01 11.01 28.02 10.02 27 9 C29.97 7.02 32.94 5.04 36 3 C31.36576971 2.7472238 27.86776581 2.88202762 23.5 4.5 C15.7351552 7.27410695 10.43036729 6.13160178 3.00390625 3.0703125 C1 2 1 2 0 0 Z " fill="#2296A6" transform="translate(202,291)"/>
<path d="M0 0 C3.0916909 2.52956528 3.90931332 5.22454612 5 9 C3.35 9.33 1.7 9.66 0 10 C0 9.34 0 8.68 0 8 C-3.73487777 8.4979837 -5.81237635 8.87491756 -9 11 C-10.86187826 11.4176941 -12.73993285 11.76655938 -14.625 12.0625 C-18.12137088 12.36508826 -18.12137088 12.36508826 -21 14 C-22.99958364 14.04080783 -25.00045254 14.04254356 -27 14 C-27 13.34 -27 12.68 -27 12 C-26.07058594 11.82984375 -25.14117187 11.6596875 -24.18359375 11.484375 C-14.01836142 9.49160787 -7.74600113 6.80136685 0 0 Z " fill="#1495AA" transform="translate(384,291)"/>
<path d="M0 0 C1.175625 0.144375 2.35125 0.28875 3.5625 0.4375 C4.28953125 0.52515625 5.0165625 0.6128125 5.765625 0.703125 C7.78999262 0.97209692 9.80275693 1.32508732 11.8125 1.6875 C15.15391196 2.35473043 15.15391196 2.35473043 18 0 C18.33 0.99 18.66 1.98 19 3 C19.804375 3.144375 20.60875 3.28875 21.4375 3.4375 C24 4 24 4 25 5 C26.47396739 5.20768229 27.9549126 5.36716017 29.4375 5.5 C33.78082192 5.89041096 33.78082192 5.89041096 36 7 C38.37123246 7.23029956 40.74741943 7.41119942 43.125 7.5625 C44.40632813 7.64628906 45.68765625 7.73007812 47.0078125 7.81640625 C48.48894531 7.90728516 48.48894531 7.90728516 50 8 C50 8.66 50 9.32 50 10 C32.95721499 9.69956629 16.33538185 5.62208869 0 1 C0 0.67 0 0.34 0 0 Z " fill="#1991A6" transform="translate(176,489)"/>
<path d="M0 0 C0.66 0.33 1.32 0.66 2 1 C0.96868313 4.0939506 0.23477351 4.81599115 -2 7 C-5.86325396 12.72876244 -6.59963226 17.96586011 -6.609375 24.75 C-6.62591125 25.64871826 -6.64244751 26.54743652 -6.65948486 27.47338867 C-6.70768104 30.31566392 -6.72927224 33.1574053 -6.75 36 C-6.77818347 37.93882853 -6.8081142 39.87763251 -6.83984375 41.81640625 C-6.91343212 46.54422682 -6.96317962 51.27175594 -7 56 C-9.31 56 -11.62 56 -14 56 C-14 55.67 -14 55.34 -14 55 C-12.02 55 -10.04 55 -8 55 C-8.02094727 53.80511963 -8.04189453 52.61023926 -8.06347656 51.37915039 C-8.13631612 46.91198893 -8.1819585 42.44487912 -8.21972656 37.97729492 C-8.23974243 36.05012155 -8.26696383 34.12300814 -8.30175781 32.19604492 C-8.35072041 29.41309748 -8.37306917 26.63095844 -8.390625 23.84765625 C-8.41127014 22.99728287 -8.43191528 22.14690948 -8.45318604 21.27076721 C-8.45627428 12.88715013 -5.63489133 6.23862969 0 0 Z " fill="#2A93A5" transform="translate(278,248)"/>
<path d="M0 0 C0 0.99 0 1.98 0 3 C0.9590625 3.185625 0.9590625 3.185625 1.9375 3.375 C2.9584375 3.684375 2.9584375 3.684375 4 4 C4.495 4.99 4.495 4.99 5 6 C1.59687262 4.94124926 -1.01353231 3.99097846 -4 2 C-15.75783882 -0.73438112 -24.95922055 1.9104532 -35 8 C-35 7.01 -35 6.02 -35 5 C-34.34 5 -33.68 5 -33 5 C-33 4.34 -33 3.68 -33 3 C-26.51244912 -0.40993326 -20.9826966 -1.6782756 -13.6875 -1.875 C-12.80771484 -1.92140625 -11.92792969 -1.9678125 -11.02148438 -2.015625 C-6.66419995 -2.1876666 -3.85701959 -2.22354199 0 0 Z " fill="#2393A3" transform="translate(374,236)"/>
<path d="M0 0 C-19.24161777 13.22694887 -19.24161777 13.22694887 -28 17 C-28.66 16.67 -29.32 16.34 -30 16 C-29.67 14.02 -29.34 12.04 -29 10 C-28.34 10 -27.68 10 -27 10 C-26.34 10.66 -25.68 11.32 -25 12 C-24.01 12 -23.02 12 -22 12 C-21.67 11.01 -21.34 10.02 -21 9 C-20.236875 8.896875 -19.47375 8.79375 -18.6875 8.6875 C-15.98440058 8.23930177 -15.98440058 8.23930177 -14.5 6.5 C-12.50098925 4.50098925 -10.74606742 4.37109019 -8 4 C-8 3.01 -8 2.02 -8 1 C-4.85571151 -0.9090323 -3.47925125 -1.04523725 0 0 Z " fill="#248D9B" transform="translate(393,456)"/>
<path d="M0 0 C0.33 0.99 0.66 1.98 1 3 C1.66 3 2.32 3 3 3 C3 2.34 3 1.68 3 1 C4.32 0.67 5.64 0.34 7 0 C6.73445312 0.51949219 6.46890625 1.03898438 6.1953125 1.57421875 C5.84210938 2.27160156 5.48890625 2.96898437 5.125 3.6875 C4.77695313 4.37199219 4.42890625 5.05648437 4.0703125 5.76171875 C3.71710938 6.50035156 3.36390625 7.23898438 3 8 C2.443125 9.06734375 2.443125 9.06734375 1.875 10.15625 C0.57852807 14.36978378 0.79009643 18.43343514 0.875 22.8125 C0.88853516 24.13797852 0.88853516 24.13797852 0.90234375 25.49023438 C0.92580363 27.66027359 0.96167135 29.83017247 1 32 C0.34 32 -0.32 32 -1 32 C-0.99476318 31.37544922 -0.98952637 30.75089844 -0.98413086 30.10742188 C-0.96315924 27.23829176 -0.95027624 24.36917785 -0.9375 21.5 C-0.92912109 20.51773437 -0.92074219 19.53546875 -0.91210938 18.5234375 C-0.89730175 14.08115033 -0.95419166 9.8023286 -1.62890625 5.40625 C-1.75136719 4.2821875 -1.87382812 3.158125 -2 2 C-1.34 1.34 -0.68 0.68 0 0 Z " fill="#1895AA" transform="translate(186,248)"/>
<path d="M0 0 C5.30747913 4.71775923 8.44896235 10.03584097 10 17 C7.6875 17.625 7.6875 17.625 5 18 C4.01 17.34 3.02 16.68 2 16 C2 12 2 12 3 9 C2.15835673 5.97503122 2.15835673 5.97503122 1 3 C0.67 2.01 0.34 1.02 0 0 Z " fill="#0D94A9" transform="translate(233,249)"/>
<path d="M0 0 C4.12909642 0.61356051 7.27550592 1.99680569 10.95703125 3.94140625 C12.06884766 4.52470703 13.18066406 5.10800781 14.32617188 5.70898438 C15.47666016 6.32064453 16.62714844 6.93230469 17.8125 7.5625 C18.99383458 8.18482609 20.17547237 8.80657697 21.35742188 9.42773438 C24.24131386 10.94619179 27.1219814 12.47044807 30 14 C26.52674819 15.1577506 23.63932552 15.06866652 20 15 C20 14.34 20 13.68 20 13 C20.66 12.67 21.32 12.34 22 12 C17.71 10.02 13.42 8.04 9 6 C9.33 6.33 9.66 6.66 10 7 C8.02 7.99 8.02 7.99 6 9 C5.62875 7.6078125 5.62875 7.6078125 5.25 6.1875 C3.93545755 2.83541675 3.02036616 1.8122197 0 0 Z " fill="#188BA0" transform="translate(350,21)"/>
<path d="M0 0 C0.33 0 0.66 0 1 0 C1.10957031 0.76183594 1.21914063 1.52367187 1.33203125 2.30859375 C2.86804563 14.61316415 2.86804563 14.61316415 9 25 C10.65204456 25.70211894 12.31923769 26.36971413 14 27 C15.8125 28.5 15.8125 28.5 17 30 C17 30.66 17 31.32 17 32 C10.91820089 30.289494 5.93248611 26.06829271 2.59765625 20.7734375 C-0.51469891 13.97277534 -0.41544791 7.36266013 0 0 Z " fill="#2A96A6" transform="translate(333,263)"/>
<path d="M0 0 C1.65 0 3.3 0 5 0 C5 9.24 5 18.48 5 28 C4.67 28 4.34 28 4 28 C3.67 24.37 3.34 20.74 3 17 C2.67 17 2.34 17 2 17 C2.02320313 16.10796875 2.04640625 15.2159375 2.0703125 14.296875 C2.09738281 12.54117187 2.09738281 12.54117187 2.125 10.75 C2.14820313 9.58984375 2.17140625 8.4296875 2.1953125 7.234375 C2.0103949 4.17213954 1.60823023 2.55797249 0 0 Z " fill="#1C96AF" transform="translate(159,274)"/>
<path d="M0 0 C0 0.66 0 1.32 0 2 C-0.60585937 1.97679687 -1.21171875 1.95359375 -1.8359375 1.9296875 C-10.32238378 1.7469025 -18.02102886 3.06037906 -26 6 C-25.67 5.01 -25.34 4.02 -25 3 C-24.01 3 -23.02 3 -22 3 C-22.33 2.01 -22.66 1.02 -23 0 C-16.84639017 -3.07680491 -6.67973882 -1.2723312 0 0 Z " fill="#1E98AA" transform="translate(226,235)"/>
<path d="M0 0 C0 0.33 0 0.66 0 1 C-4.455 1.495 -4.455 1.495 -9 2 C-9 1.01 -9 0.02 -9 -1 C-10.08667969 -0.80083984 -10.08667969 -0.80083984 -11.1953125 -0.59765625 C-16.12491105 0.30281709 -21.05322123 1.19781966 -26 2 C-19.65671011 -5.75290987 -7.89737555 -4.12036985 0 0 Z " fill="#1A95A6" transform="translate(229,245)"/>
<path d="M0 0 C2.69082872 0.17635452 5.32851446 0.61835921 8 1 C8 1.66 8 2.32 8 3 C8.8971875 3.37125 8.8971875 3.37125 9.8125 3.75 C12 5 12 5 13.5 7.0625 C15.24509481 9.3165808 16.23423473 9.61851514 19 10 C18.01 10.99 17.02 11.98 16 13 C13 12 13 12 11.5 9.0625 C10.7575 7.5465625 10.7575 7.5465625 10 6 C7.08235 4.0549 5.37462715 3.54723683 2 3 C1.67 4.98 1.34 6.96 1 9 C0.34 8.67 -0.32 8.34 -1 8 C-1.04241723 5.66705225 -1.04092937 3.33297433 -1 1 C-0.67 0.67 -0.34 0.34 0 0 Z " fill="#1E99AE" transform="translate(256,234)"/>
<path d="M0 0 C0.51046875 0.39832031 1.0209375 0.79664063 1.546875 1.20703125 C11.82436073 8.69647564 21.60491316 9.65934227 34 8 C33.67 8.66 33.34 9.32 33 10 C28.33968874 11.16330449 23.8172814 11.04689269 19.0625 10.75 C18.38509766 10.72292969 17.70769531 10.69585937 17.00976562 10.66796875 C12.09037789 10.3755411 8.39116308 9.26568312 4 7 C3.67 6.34 3.34 5.68 3 5 C2.01 4.34 1.02 3.68 0 3 C0 2.01 0 1.02 0 0 Z " fill="#2493A5" transform="translate(194,293)"/>
<path d="M0 0 C0.66 0.99 1.32 1.98 2 3 C1.13671875 5.453125 1.13671875 5.453125 -0.3125 8.25 C-2.46452478 12.65346374 -3.67530767 16.1296151 -4 21 C-4.33 21 -4.66 21 -5 21 C-5.28875 22.03125 -5.5775 23.0625 -5.875 24.125 C-6.82308798 27.45007997 -7.88256594 30.72751453 -9 34 C-10.22099781 30.48886435 -9.76439622 28.3358491 -8.671875 24.82421875 C-8.36636719 23.83099609 -8.06085937 22.83777344 -7.74609375 21.81445312 C-7.41738281 20.78255859 -7.08867187 19.75066406 -6.75 18.6875 C-6.28013672 17.15706055 -6.28013672 17.15706055 -5.80078125 15.59570312 C-4.13521084 10.24998231 -2.32748369 5.09316646 0 0 Z " fill="#1C90A5" transform="translate(17,157)"/>
<path d="M0 0 C-2.76317623 1.37021794 -5.53658478 2.71830176 -8.3125 4.0625 C-9.49102539 4.64741211 -9.49102539 4.64741211 -10.69335938 5.24414062 C-11.45068359 5.60830078 -12.20800781 5.97246094 -12.98828125 6.34765625 C-13.68477783 6.68804932 -14.38127441 7.02844238 -15.09887695 7.37915039 C-17 8 -17 8 -20 7 C-19.34 7 -18.68 7 -18 7 C-17.896875 6.21625 -17.79375 5.4325 -17.6875 4.625 C-17 2 -17 2 -14 0 C-13.01 0.33 -12.02 0.66 -11 1 C-11 1.66 -11 2.32 -11 3 C-9.9275 2.319375 -8.855 1.63875 -7.75 0.9375 C-4.68369552 -1.008424 -3.43853057 -1.00342574 0 0 Z " fill="#1592A7" transform="translate(363,474)"/>
<path d="M0 0 C0.33 0 0.66 0 1 0 C0.4003591 7.2791851 -1.14844733 14.02358241 -3.0625 21.0625 C-3.34416016 22.11888672 -3.62582031 23.17527344 -3.91601562 24.26367188 C-4.60489729 26.84405915 -5.29965829 29.42270414 -6 32 C-7.31196937 27.78885357 -6.21475886 25.21592779 -5 21 C-4.92596322 18.66784156 -4.90484114 16.33139212 -5 14 C-4.34 13.67 -3.68 13.34 -3 13 C-3.020625 11.72125 -3.04125 10.4425 -3.0625 9.125 C-3.125 5.25 -3.125 5.25 -2 3 C-1.34 3 -0.68 3 0 3 C0 2.01 0 1.02 0 0 Z " fill="#1990A6" transform="translate(495,295)"/>
<path d="M0 0 C3.63 0 7.26 0 11 0 C10.67 1.65 10.34 3.3 10 5 C9.34 5 8.68 5 8 5 C7.67 6.98 7.34 8.96 7 11 C4.6875 11.6875 4.6875 11.6875 2 12 C0.33203125 10.51953125 0.33203125 10.51953125 -1 9 C-0.36191406 8.57847656 0.27617187 8.15695312 0.93359375 7.72265625 C1.75988281 7.17480469 2.58617187 6.62695312 3.4375 6.0625 C4.26121094 5.51722656 5.08492187 4.97195313 5.93359375 4.41015625 C7.89985925 3.16197019 7.89985925 3.16197019 9 2 C6.03 1.67 3.06 1.34 0 1 C0 0.67 0 0.34 0 0 Z " fill="#1496AC" transform="translate(230,291)"/>
<path d="M0 0 C0.4125 0.474375 0.825 0.94875 1.25 1.4375 C3.182185 3.16266518 4.48192275 3.56584875 7 4 C6.79375 4.5775 6.5875 5.155 6.375 5.75 C5.90760524 8.55436855 6.46287916 9.65386819 8 12 C8.66 12.33 9.32 12.66 10 13 C10.73075648 15.3140622 11.40138258 17.64828869 12 20 C12.66 20 13.32 20 14 20 C14.33 21.65 14.66 23.3 15 25 C10.58009228 21.23255485 8.08095993 16.35332849 5.25 11.375 C4.74339844 10.50359375 4.23679687 9.6321875 3.71484375 8.734375 C0 2.26594087 0 2.26594087 0 0 Z " fill="#1D8DA1" transform="translate(29,367)"/>
<path d="M0 0 C1.65 0 3.3 0 5 0 C1.18706415 4.15005518 -3.30806305 5.75460243 -8.828125 6.2578125 C-13.47319559 6.34475232 -16.91511146 6.39557715 -21 4 C-19.98679687 3.93941406 -18.97359375 3.87882812 -17.9296875 3.81640625 C-16.57811486 3.73193296 -15.22655291 3.64728843 -13.875 3.5625 C-12.87726563 3.50352539 -12.87726563 3.50352539 -11.859375 3.44335938 C-7.84981183 3.187848 -3.95005804 2.73217587 0 2 C0 1.34 0 0.68 0 0 Z " fill="#2192A4" transform="translate(371,291)"/>
<path d="M0 0 C3.96 0 7.92 0 12 0 C12 0.33 12 0.66 12 1 C8.37 1 4.74 1 1 1 C0.938125 1.969375 0.87625 2.93875 0.8125 3.9375 C0.12460663 8.82253984 -2.18070109 12.99920299 -5 17 C-5.99 17.66 -6.98 18.32 -8 19 C-6.94124926 15.59687262 -5.99097846 12.98646769 -4 10 C-3.34 10 -2.68 10 -2 10 C-2.33 9.01 -2.66 8.02 -3 7 C-2.07796291 4.63477442 -1.08301035 2.29598193 0 0 Z " fill="#1F98A8" transform="translate(228,159)"/>
<path d="M0 0 C0.66 0.33 1.32 0.66 2 1 C1.2059375 1.75925781 0.411875 2.51851563 -0.40625 3.30078125 C-1.43789055 4.30428615 -2.46911931 5.30821452 -3.5 6.3125 C-4.02464844 6.81201172 -4.54929687 7.31152344 -5.08984375 7.82617188 C-6.4510846 9.16089504 -7.73139516 10.5769384 -9 12 C-9 12.99 -9 13.98 -9 15 C-10.95508057 17.44385071 -13.08692412 18.87235772 -16 20 C-16.66 19.67 -17.32 19.34 -18 19 C-16.12660182 16.95684406 -14.25133366 14.91545741 -12.375 12.875 C-11.59189453 12.02035156 -11.59189453 12.02035156 -10.79296875 11.1484375 C-7.28415811 7.33639631 -3.68571182 3.641439 0 0 Z " fill="#188FA4" transform="translate(78,67)"/>
<path d="M0 0 C-4.0602345 1.00935416 -8.12352164 2.0058367 -12.1875 3 C-13.91323242 3.42925781 -13.91323242 3.42925781 -15.67382812 3.8671875 C-17.34155273 4.27324219 -17.34155273 4.27324219 -19.04296875 4.6875 C-20.57473755 5.06455078 -20.57473755 5.06455078 -22.13745117 5.44921875 C-24.84306968 5.96980513 -27.25415588 6.10586387 -30 6 C-26.86501708 4.14223235 -24.62528568 3.79859524 -21 4 C-21 3.34 -21 2.68 -21 2 C-17.62182575 1.15545644 -15.32534757 0.89155081 -12 2 C-12 1.34 -12 0.68 -12 0 C-4.265625 -1.16015625 -4.265625 -1.16015625 0 0 Z " fill="#1D91A5" transform="translate(320,491)"/>
<path d="M0 0 C-1.3921875 0.5259375 -1.3921875 0.5259375 -2.8125 1.0625 C-6.9857645 3.59919019 -7.46185496 5.4710174 -9 10 C-11.88575819 9.60196439 -12.82189513 9.20990931 -14.75 6.9375 C-15.1625 6.298125 -15.575 5.65875 -16 5 C-14.68 5.33 -13.36 5.66 -12 6 C-11.67 5.01 -11.34 4.02 -11 3 C-10.34 3 -9.68 3 -9 3 C-9 2.34 -9 1.68 -9 1 C-5.57367167 -0.61798838 -3.61944899 -1.34053666 0 0 Z " fill="#1892A8" transform="translate(395,237)"/>
<path d="M0 0 C4.89432845 3.02296757 5.70766462 6.75012965 7.25 12.08203125 C8.580643 19.03325484 8.30368074 25.95629398 8 33 C7.67 33 7.34 33 7 33 C6.92652344 31.33710938 6.92652344 31.33710938 6.8515625 29.640625 C6.77650785 28.17705935 6.70096119 26.71351888 6.625 25.25 C6.5940625 24.52039063 6.563125 23.79078125 6.53125 23.0390625 C6.32108926 19.18611556 5.9340852 16.33666607 4 13 C3.42975335 10.75069376 2.99946458 8.49720816 2.5625 6.21875 C1.98268356 3.93169625 1.12677692 2.06575768 0 0 Z " fill="#2392A4" transform="translate(156,227)"/>
<path d="M0 0 C-9.04100228 7.85193622 -9.04100228 7.85193622 -16 8 C-16 7.01 -16 6.02 -16 5 C-14.02 5 -12.04 5 -10 5 C-10 3.68 -10 2.36 -10 1 C-8.71073008 0.63720544 -7.41846728 0.28503302 -6.125 -0.0625 C-5.40570313 -0.25972656 -4.68640625 -0.45695313 -3.9453125 -0.66015625 C-2 -1 -2 -1 0 0 Z " fill="#1799AC" transform="translate(220,179)"/>
<path d="M0 0 C0.33 0.66 0.66 1.32 1 2 C3.52733235 2.65555119 3.52733235 2.65555119 6 3 C6 3.99 6 4.98 6 6 C5.34 6 4.68 6 4 6 C4.50696379 10.43593314 6.17174238 12.62433768 9 16 C9 16.66 9 17.32 9 18 C7 18 7 18 4.5 15.75 C0.81702422 11.25220656 0.60698706 5.59877616 0 0 Z " fill="#0696B3" transform="translate(193,273)"/>
<path d="M0 0 C5.77227287 -0.36844295 10.7230161 0.53136805 16 3 C16.33 3.66 16.66 4.32 17 5 C13.10934107 5.07482036 9.75153255 4.96813743 6 4 C4.00036972 3.96154557 1.99948367 3.95455719 0 4 C0 2.68 0 1.36 0 0 Z " fill="#1793A6" transform="translate(132,216)"/>
<path d="M0 0 C7.63054095 0.61044328 14.70189474 2.79621821 22 5 C18.57194922 5.94030767 15.56106419 6.07576732 12 6 C11.01 6 10.02 6 9 6 C8.67 5.34 8.34 4.68 8 4 C6.11736119 3.09656316 6.11736119 3.09656316 3.9375 2.375 C3.20402344 2.11460938 2.47054688 1.85421875 1.71484375 1.5859375 C1.14894531 1.39257812 0.58304687 1.19921875 0 1 C0 0.67 0 0.34 0 0 Z " fill="#1689A5" transform="translate(305,6)"/>
<path d="M0 0 C2.25 0 2.25 0 5 1 C8.7166132 5.93868601 9.94957817 12.02918115 11 18 C10.34 18 9.68 18 9 18 C8.68546875 17.20335937 8.3709375 16.40671875 8.046875 15.5859375 C5.78739465 9.99168193 3.62750816 4.83667754 0 0 Z " fill="#1F97A5" transform="translate(159,220)"/>
<path d="M0 0 C2 3 2 3 2 5 C2.66 5.33 3.32 5.66 4 6 C3.34 6 2.68 6 2 6 C2 6.66 2 7.32 2 8 C2.99 8.33 3.98 8.66 5 9 C1.71023192 10.09658936 0.28696233 9.79953138 -3 9 C-2.01 6.03 -1.02 3.06 0 0 Z " fill="#18A0B2" transform="translate(194,257)"/>
<path d="M0 0 C0.72832031 -0.01224609 1.45664063 -0.02449219 2.20703125 -0.03710938 C4.09782978 -0.04235188 5.98815581 0.06516615 7.875 0.1875 C8.535 0.8475 9.195 1.5075 9.875 2.1875 C8.89273438 2.15269531 8.89273438 2.15269531 7.890625 2.1171875 C0.67837411 1.97457237 -6.05319038 2.80522657 -13.125 4.1875 C-12.795 3.1975 -12.465 2.2075 -12.125 1.1875 C-8.37999494 -0.44035396 -4.02052924 0.00359618 0 0 Z " fill="#2893A6" transform="translate(134.125,208.8125)"/>
<path d="M0 0 C0.66 0 1.32 0 2 0 C2.33 1.32 2.66 2.64 3 4 C4.65 3.67 6.3 3.34 8 3 C8 3.99 8 4.98 8 6 C7.34 6.66 6.68 7.32 6 8 C5.83312552 10.58354218 5.83312552 10.58354218 6 13 C2.84297684 9.09130466 0 5.1385061 0 0 Z " fill="#1291A9" transform="translate(21,350)"/>
<path d="M0 0 C1.85776765 3.13498292 2.20140476 5.37471432 2 9 C-0.97 8.505 -0.97 8.505 -4 8 C-3.67 5.69 -3.34 3.38 -3 1 C-2.01 0.67 -1.02 0.34 0 0 Z " fill="#0A95AB" transform="translate(397,287)"/>
<path d="M0 0 C0.33 0 0.66 0 1 0 C1.33 5.94 1.66 11.88 2 18 C-1 15 -1 15 -1.328125 11.6796875 C-1.30234375 10.42414063 -1.2765625 9.16859375 -1.25 7.875 C-1.23453125 6.61429688 -1.2190625 5.35359375 -1.203125 4.0546875 C-1 1 -1 1 0 0 Z " fill="#139EB5" transform="translate(162,247)"/>
<path d="M0 0 C1.2065625 0.0309375 1.2065625 0.0309375 2.4375 0.0625 C1.98667531 1.52317199 1.52656463 2.98098032 1.0625 4.4375 C0.80726563 5.24960937 0.55203125 6.06171875 0.2890625 6.8984375 C-0.5625 9.0625 -0.5625 9.0625 -2.5625 11.0625 C-3.2225 9.4125 -3.8825 7.7625 -4.5625 6.0625 C-3.9025 5.7325 -3.2425 5.4025 -2.5625 5.0625 C-2.8409375 4.1034375 -2.8409375 4.1034375 -3.125 3.125 C-3.3415625 2.1040625 -3.3415625 2.1040625 -3.5625 1.0625 C-2.5625 0.0625 -2.5625 0.0625 0 0 Z " fill="#1094AA" transform="translate(478.5625,345.9375)"/>
<path d="M0 0 C-8.16780971 4.21152688 -15.84490702 5.55076532 -25 6 C-21.38079355 3.5871957 -17.79876463 2.82678754 -13.625 1.875 C-12.86960938 1.69324219 -12.11421875 1.51148438 -11.3359375 1.32421875 C-7.48737403 0.42936046 -3.98051023 -0.2378791 0 0 Z " fill="#1F8EA3" transform="translate(205,4)"/>
<path d="M0 0 C1.90318884 2.85478326 2.4619099 4.41941308 3.125 7.6875 C3.29257812 8.49574219 3.46015625 9.30398437 3.6328125 10.13671875 C3.75398438 10.75160156 3.87515625 11.36648437 4 12 C3.34 12 2.68 12 2 12 C1.67 11.01 1.34 10.02 1 9 C-0.65 8.67 -2.3 8.34 -4 8 C-4 7.34 -4 6.68 -4 6 C-3.01 6 -2.02 6 -1 6 C-0.67 4.02 -0.34 2.04 0 0 Z " fill="#128EAB" transform="translate(485,164)"/>
<path d="M0 0 C4.68 4.32 4.68 4.32 6 7.125 C6 9 6 9 4.5625 10.75 C3.7890625 11.36875 3.7890625 11.36875 3 12 C2.34 11.67 1.68 11.34 1 11 C0.5859375 8.49609375 0.5859375 8.49609375 0.375 5.4375 C0.30023438 4.42558594 0.22546875 3.41367188 0.1484375 2.37109375 C0.09945313 1.58863281 0.05046875 0.80617188 0 0 Z " fill="#0C90A8" transform="translate(455,107)"/>
<path d="M0 0 C0.66 0.33 1.32 0.66 2 1 C2 1.66 2 2.32 2 3 C0.54735962 3.8638129 -0.9123163 4.71580454 -2.375 5.5625 C-3.59316406 6.27599609 -3.59316406 6.27599609 -4.8359375 7.00390625 C-5.55007813 7.33261719 -6.26421875 7.66132813 -7 8 C-7.66 7.67 -8.32 7.34 -9 7 C-8.67 5.02 -8.34 3.04 -8 1 C-7.34 1 -6.68 1 -6 1 C-5.34 1.66 -4.68 2.32 -4 3 C-3.01 3 -2.02 3 -1 3 C-0.67 2.01 -0.34 1.02 0 0 Z " fill="#1491A5" transform="translate(372,465)"/>
<path d="M0 0 C0.70189453 0.00451172 1.40378906 0.00902344 2.12695312 0.01367188 C3.85550538 0.02543073 5.58401365 0.04336546 7.3125 0.0625 C7.3125 0.3925 7.3125 0.7225 7.3125 1.0625 C6.48105469 1.11148438 5.64960938 1.16046875 4.79296875 1.2109375 C3.70628906 1.28570312 2.61960937 1.36046875 1.5 1.4375 C0.42105469 1.50710937 -0.65789062 1.57671875 -1.76953125 1.6484375 C-4.87376186 1.87445733 -4.87376186 1.87445733 -7.6875 4.0625 C-10.875 4.1875 -10.875 4.1875 -13.6875 4.0625 C-9.67101983 -0.33650209 -5.64545497 -0.0685256 0 0 Z " fill="#2192A6" transform="translate(359.6875,241.9375)"/>
<path d="M0 0 C0 0.66 0 1.32 0 2 C-3.90648297 5.51264136 -7.73131838 7.3375492 -13 7.3125 C-14.33506492 7.2335688 -15.66980117 7.13856238 -17 7 C-14.16090798 5.55452621 -11.29112835 4.2200113 -8.375 2.9375 C-1.70188679 0 -1.70188679 0 0 0 Z " fill="#2098A6" transform="translate(222,192)"/>
<path d="M0 0 C0.66 0.33 1.32 0.66 2 1 C1.38125 1.5775 0.7625 2.155 0.125 2.75 C-1.81347053 4.80249821 -2.90014249 6.43366582 -4 9 C-4.99 8.67 -5.98 8.34 -7 8 C-9.14255793 8.38932856 -9.14255793 8.38932856 -11 9 C-7.56638098 5.36440339 -4.2026393 2.63886654 0 0 Z " fill="#148EA6" transform="translate(114,39)"/>
<path d="M0 0 C2.475 0.99 2.475 0.99 5 2 C5 2.66 5 3.32 5 4 C6.32 4.33 7.64 4.66 9 5 C9 5.66 9 6.32 9 7 C10.65 7.33 12.3 7.66 14 8 C13.34 8.66 12.68 9.32 12 10 C8.17489966 9.7428504 6.32176721 7.66701785 3.75 5 C3.04359375 4.278125 2.3371875 3.55625 1.609375 2.8125 C0 1 0 1 0 0 Z " fill="#198FA2" transform="translate(71,425)"/>
<path d="M0 0 C0.66 0 1.32 0 2 0 C2.33 0.66 2.66 1.32 3 2 C3.66 1.67 4.32 1.34 5 1 C4.67 3.64 4.34 6.28 4 9 C4.66 9 5.32 9 6 9 C6 10.65 6 12.3 6 14 C3.52813545 11.03653214 2.33751639 8.45958311 1.3125 4.75 C1.06113281 3.85796875 0.80976563 2.9659375 0.55078125 2.046875 C0.36902344 1.37140625 0.18726563 0.6959375 0 0 Z " fill="#198EA5" transform="translate(15,336)"/>
<path d="M0 0 C2.54464992 3.81697488 4.54807653 7.64422959 6 12 C2 12 2 12 0 11 C0 7.37 0 3.74 0 0 Z " fill="#1691AB" transform="translate(187,280)"/>
<path d="M0 0 C0.33 0 0.66 0 1 0 C1.02688151 1.64574566 1.04634123 3.29161413 1.0625 4.9375 C1.07410156 5.85402344 1.08570313 6.77054688 1.09765625 7.71484375 C1 10 1 10 0 11 C-0.2165625 12.7325 -0.2165625 12.7325 -0.4375 14.5 C-0.623125 15.655 -0.80875 16.81 -1 18 C-1.66 18.33 -2.32 18.66 -3 19 C-2.48446121 12.50149789 -1.53332291 6.33773468 0 0 Z " fill="#1E8EA4" transform="translate(6,191)"/>
<path d="M0 0 C-1.65 1.98 -3.3 3.96 -5 6 C-5.33 4.68 -5.66 3.36 -6 2 C-7.32 1.67 -8.64 1.34 -10 1 C-6.1496895 -1.56687367 -4.41430237 -0.83288724 0 0 Z " fill="#1196AB" transform="translate(427,427)"/>
<path d="M0 0 C0.75 1.75 0.75 1.75 1 4 C-1.28375062 6.87583411 -3.64084842 8.56036361 -7 10 C-7 9.01 -7 8.02 -7 7 C-5.36739286 5.62517293 -3.69774938 4.29352333 -2 3 C-1.34 2.01 -0.68 1.02 0 0 Z " fill="#1696A5" transform="translate(230,183)"/>
<path d="M0 0 C0.66 0 1.32 0 2 0 C3.625 2 3.625 2 5 4 C3.35 5.65 1.7 7.3 0 9 C-1.10844919 5.67465243 -0.84454356 3.37817425 0 0 Z " fill="#0C92A8" transform="translate(443,400)"/>
<path d="M0 0 C-5.03996638 3.35997759 -9.99709677 4.29282455 -16 4 C-16 3.34 -16 2.68 -16 2 C-13.71022755 1.47090114 -11.41810812 0.95194981 -9.125 0.4375 C-7.84882813 0.14746094 -6.57265625 -0.14257812 -5.2578125 -0.44140625 C-2 -1 -2 -1 0 0 Z " fill="#2093A4" transform="translate(373,301)"/>
<path d="M0 0 C2.55088723 1.05553954 3.85389582 1.79910675 5.5 4.0625 C7.24509481 6.3165808 8.23423473 6.61851514 11 7 C10.01 7.99 9.02 8.98 8 10 C5 9 5 9 3.4375 6.125 C2.963125 5.09375 2.48875 4.0625 2 3 C1.34 2.01 0.68 1.02 0 0 Z " fill="#2D96A3" transform="translate(264,237)"/>
<path d="M0 0 C2.475 0.495 2.475 0.495 5 1 C5 1.66 5 2.32 5 3 C6.65 3 8.3 3 10 3 C10.66 4.65 11.32 6.3 12 8 C7.44328408 6.48109469 3.68276708 4.04597738 0 1 C0 0.67 0 0.34 0 0 Z " fill="#15919F" transform="translate(107,455)"/>
<path d="M0 0 C2.6855594 2.6855594 3.06049974 5.37621328 4 9 C1.625 9.625 1.625 9.625 -1 10 C-1.66 9.34 -2.32 8.68 -3 8 C-1.68 8 -0.36 8 1 8 C1 7.01 1 6.02 1 5 C0.34 4.67 -0.32 4.34 -1 4 C-0.67 2.68 -0.34 1.36 0 0 Z " fill="#1C8EA9" transform="translate(239,257)"/>
<path d="M0 0 C1 4 1 4 1 8 C0.34 8 -0.32 8 -1 8 C-1 8.66 -1 9.32 -1 10 C-2.32 9.67 -3.64 9.34 -5 9 C-3.35 6.03 -1.7 3.06 0 0 Z " fill="#1795A9" transform="translate(236,173)"/>
<path d="M0 0 C3.37462715 0.54723683 5.08235 1.0549 8 3 C8 4.32 8 5.64 8 7 C8.66 7.33 9.32 7.66 10 8 C8.68 8.33 7.36 8.66 6 9 C5.62875 7.6078125 5.62875 7.6078125 5.25 6.1875 C3.93545755 2.83541675 3.02036616 1.8122197 0 0 Z " fill="#108FA6" transform="translate(350,21)"/>
<path d="M0 0 C0.66 0.33 1.32 0.66 2 1 C0.96501431 4.10495707 0.21350711 4.78649289 -2 7 C-3.17574711 9.09989652 -3.17574711 9.09989652 -4 11 C-4.66 10.34 -5.32 9.68 -6 9 C-4.16172132 5.84866512 -2.24027294 2.88035092 0 0 Z " fill="#229FAE" transform="translate(278,248)"/>
<path d="M0 0 C2.125 0.9375 2.125 0.9375 4 2 C4 2.99 4 3.98 4 5 C4.639375 5.12375 5.27875 5.2475 5.9375 5.375 C6.618125 5.58125 7.29875 5.7875 8 6 C8.33 6.66 8.66 7.32 9 8 C5.59687262 6.94124926 2.98646769 5.99097846 0 4 C0 3.34 0 2.68 0 2 C-0.66 1.67 -1.32 1.34 -2 1 C-1.34 0.67 -0.68 0.34 0 0 Z " fill="#1997A6" transform="translate(370,234)"/>
<path d="M0 0 C9.59453303 5.0022779 9.59453303 5.0022779 13 9 C8.67535468 7.4274017 4.87821405 5.4611743 1 3 C0.67 2.01 0.34 1.02 0 0 Z " fill="#1D889D" transform="translate(380,36)"/>
<path d="M0 0 C4.95 0.33 9.9 0.66 15 1 C15 1.33 15 1.66 15 2 C10.05 2.33 5.1 2.66 0 3 C0 2.01 0 1.02 0 0 Z " fill="#1D90A2" transform="translate(274,496)"/>
<path d="M0 0 C0.33 0 0.66 0 1 0 C1.16682272 4.92127034 1.24828052 8.50343896 -1 13 C-1.66 13 -2.32 13 -3 13 C-2.01 8.71 -1.02 4.42 0 0 Z " fill="#2198AD" transform="translate(240,160)"/>
<path d="M0 0 C1.33855056 0.78281305 2.67073644 1.57651877 4 2.375 C5.11375 3.03628906 5.11375 3.03628906 6.25 3.7109375 C6.8275 4.13632812 7.405 4.56171875 8 5 C8 5.66 8 6.32 8 7 C6.68 7 5.36 7 4 7 C3.67 6.34 3.34 5.68 3 5 C2.01 4.34 1.02 3.68 0 3 C0 2.01 0 1.02 0 0 Z " fill="#1692A8" transform="translate(194,293)"/>
<path d="M0 0 C0.99 0.33 1.98 0.66 3 1 C3 1.66 3 2.32 3 3 C4.65 3 6.3 3 8 3 C8 3.33 8 3.66 8 4 C4.7 4 1.4 4 -2 4 C-1.34 2.68 -0.68 1.36 0 0 Z " fill="#1392AA" transform="translate(196,184)"/>
<path d="M0 0 C0.66 0.99 1.32 1.98 2 3 C-1.625 8.875 -1.625 8.875 -5 10 C-3.66511872 6.40608886 -2.03977277 3.24509304 0 0 Z " fill="#188DA3" transform="translate(36,119)"/>
<path d="M0 0 C3 2 3 2 3.6875 4.625 C3.790625 5.40875 3.89375 6.1925 4 7 C0.63279613 5.60667426 -0.9859524 4.0210714 -3 1 C-2.01 0.67 -1.02 0.34 0 0 Z " fill="#1890A6" transform="translate(86,435)"/>
<path d="M0 0 C0.66 0.33 1.32 0.66 2 1 C-0.97 4.96 -0.97 4.96 -4 9 C-5 5 -5 5 -4 3 C-3.01 3 -2.02 3 -1 3 C-0.67 2.01 -0.34 1.02 0 0 Z " fill="#1C8FA2" transform="translate(455,391)"/>
<path d="M0 0 C2.50037734 2.17424117 3.43628586 3.73045798 4 7 C2.68 7 1.36 7 0 7 C-0.93423645 3.98968256 -1.04449911 3.13349732 0 0 Z " fill="#118EA7" transform="translate(467,126)"/>
<path d="M0 0 C0.66 0.33 1.32 0.66 2 1 C0.625 3.5 0.625 3.5 -1 6 C-1.66 6 -2.32 6 -3 6 C-3 6.66 -3 7.32 -3 8 C-3.99 7.67 -4.98 7.34 -6 7 C-4.02 4.69 -2.04 2.38 0 0 Z " fill="#138DA1" transform="translate(87,59)"/>
<path d="M0 0 C-5.75 4 -5.75 4 -8 4 C-8 3.01 -8 2.02 -8 1 C-4.93251126 -0.86240388 -3.40254489 -1.2151946 0 0 Z " fill="#1791A2" transform="translate(393,456)"/>
<path d="M0 0 C2.96404505 2.80804268 5.44499019 5.18315774 7 9 C6.34 9 5.68 9 5 9 C0 3.64285714 0 3.64285714 0 0 Z " fill="#2B97A5" transform="translate(195,282)"/>
<path d="M0 0 C0.53625 0.226875 1.0725 0.45375 1.625 0.6875 C-3.79038462 3.76442308 -3.79038462 3.76442308 -6.75 3.375 C-7.554375 3.0346875 -7.554375 3.0346875 -8.375 2.6875 C-2.95961538 -0.38942308 -2.95961538 -0.38942308 0 0 Z " fill="#2595AA" transform="translate(129.375,217.3125)"/>
<path d="M0 0 C2.02350324 3.03525486 2.32124018 4.19426202 2.625 7.6875 C2.69976562 8.49574219 2.77453125 9.30398437 2.8515625 10.13671875 C2.90054687 10.75160156 2.94953125 11.36648437 3 12 C1.09598862 10.09598862 0.06479561 8.66574314 -0.19921875 5.953125 C-0.1886578 3.96766727 -0.09915043 1.9830086 0 0 Z " fill="#188EA6" transform="translate(491,184)"/>
<path d="M0 0 C-2 3 -2 3 -5 5 C-5.66 3.68 -6.32 2.36 -7 1 C-3.375 -1.125 -3.375 -1.125 0 0 Z " fill="#069CB7" transform="translate(24,155)"/>
<path d="M0 0 C1.13643966 3.40931897 0.86747764 4.00335456 -0.4375 7.1875 C-0.72496094 7.90292969 -1.01242188 8.61835938 -1.30859375 9.35546875 C-1.53675781 9.89816406 -1.76492187 10.44085938 -2 11 C-2.66 11 -3.32 11 -4 11 C-3.52269162 9.5410574 -3.04308958 8.08286504 -2.5625 6.625 C-2.29566406 5.81289062 -2.02882813 5.00078125 -1.75390625 4.1640625 C-1 2 -1 2 0 0 Z " fill="#188E9D" transform="translate(22,145)"/>
<path d="M0 0 C1.125 3.75 1.125 3.75 0 6 C-1.64363134 6.72159424 -3.31050386 7.39351421 -5 8 C-3.62845496 5.04590299 -2.01136276 2.55991624 0 0 Z " fill="#148F9C" transform="translate(52,96)"/>
<path d="M0 0 C0.33 0.66 0.66 1.32 1 2 C0.22265625 3.7265625 0.22265625 3.7265625 -0.9375 5.625 C-1.618125 6.73875 -2.29875 7.8525 -3 9 C-3.99 8.67 -4.98 8.34 -6 8 C-4.02 5.36 -2.04 2.72 0 0 Z " fill="#198BA2" transform="translate(59,87)"/>
<path d="M0 0 C-0.625 1.9375 -0.625 1.9375 -2 4 C-5.125 4.75 -5.125 4.75 -8 5 C-3.16129032 0 -3.16129032 0 0 0 Z " fill="#1790A2" transform="translate(124,34)"/>
<path d="M0 0 C0.33 1.32 0.66 2.64 1 4 C-0.65 4.33 -2.3 4.66 -4 5 C-4.66 4.01 -5.32 3.02 -6 2 C-4.02 1.34 -2.04 0.68 0 0 Z " fill="#059CBB" transform="translate(389,299)"/>
<path d="M0 0 C3.24271506 0.5590888 4.93057424 1.4132178 7 4 C7 4.66 7 5.32 7 6 C2.25 4.125 2.25 4.125 0 3 C0 2.01 0 1.02 0 0 Z " fill="#1795A8" transform="translate(343,289)"/>
<path d="M0 0 C2.64 0.99 5.28 1.98 8 3 C6.4375 4.125 6.4375 4.125 4 5 C0.25 4.125 0.25 4.125 -3 3 C-2.01 2.01 -1.02 1.02 0 0 Z " fill="#10A1B7" transform="translate(292,232)"/>
<path d="M0 0 C1.32 0 2.64 0 4 0 C4 0.66 4 1.32 4 2 C5.65 2.33 7.3 2.66 9 3 C9 3.66 9 4.32 9 5 C5.22454612 3.90931332 2.52956528 3.0916909 0 0 Z " fill="#1892A1" transform="translate(119,463)"/>
<path d="M0 0 C0.33 0.66 0.66 1.32 1 2 C1.66 2.33 2.32 2.66 3 3 C1.35 4.32 -0.3 5.64 -2 7 C-1.125 1.125 -1.125 1.125 0 0 Z " fill="#1493A5" transform="translate(429,420)"/>
<path d="M0 0 C0.4125 0.474375 0.825 0.94875 1.25 1.4375 C3.182185 3.16266518 4.48192275 3.56584875 7 4 C6.01 5.485 6.01 5.485 5 7 C4.01 6.67 3.02 6.34 2 6 C0.8125 2.9375 0.8125 2.9375 0 0 Z " fill="#1491A5" transform="translate(29,367)"/>
<path d="M0 0 C0.66 0 1.32 0 2 0 C1.39816251 2.02045442 0.72693904 4.02111039 0 6 C-0.99 6.495 -0.99 6.495 -2 7 C-2.33 5.35 -2.66 3.7 -3 2 C-2.01 2 -1.02 2 0 2 C0 1.34 0 0.68 0 0 Z " fill="#1691A6" transform="translate(469,367)"/>
<path d="M0 0 C0.99 0.33 1.98 0.66 3 1 C3 1.66 3 2.32 3 3 C3.99 3 4.98 3 6 3 C6.33 4.32 6.66 5.64 7 7 C6.01 7.495 6.01 7.495 5 8 C2.525 4.04 2.525 4.04 0 0 Z " fill="#1BA2AF" transform="translate(237,243)"/>
</svg>
